<svg xmlns="http://www.w3.org/2000/svg" width="129" height="150" viewBox="0 0 129 150" fill="none">
  <path d="M43.1333 14.0907C43.7482 13.4757 44.4401 13.0145 45.2088 12.707C45.9775 12.3995 46.7616 12.2458 47.561 12.2458C48.3605 12.2458 49.1446 12.3995 49.9133 12.707C50.682 13.0145 51.3738 13.4757 51.9888 14.0907L60.8443 22.9462C62.6739 24.7758 64.0499 26.8436 64.9723 29.1497C65.8948 31.4559 66.3483 33.8158 66.3329 36.2295C66.3176 38.6433 65.8563 40.9955 64.9492 43.2863C64.0422 45.5771 62.6739 47.6526 60.8443 49.5129C58.6304 51.7267 56.1475 53.3641 53.3955 54.4249C50.6436 55.4857 47.7071 56.0238 44.5861 56.0392H22.8162C21.9553 56.0392 21.1251 55.8701 20.3256 55.5319C19.5262 55.1936 18.8266 54.7247 18.227 54.1251C17.5813 53.4794 17.1047 52.7568 16.7972 51.9574C16.4898 51.1579 16.3283 50.3354 16.313 49.4898C16.2976 48.6442 16.459 47.8371 16.7972 47.0684C17.1355 46.2996 17.6121 45.5771 18.227 44.9006C19.4877 43.6399 21.0252 43.0096 22.8393 43.0096L27.7514 42.9865L20.0028 35.2379C18.6652 35.7145 17.3123 35.9912 15.944 36.0681C14.5757 36.145 13.2304 36.0297 11.9082 35.7222C10.5861 35.4147 9.31001 34.9381 8.08007 34.2924C6.85013 33.6467 5.74319 32.8165 4.75924 31.8018C3.32944 30.372 2.26094 28.7654 1.55372 26.982C0.846508 25.1986 0.485215 23.3613 0.469841 21.4703C0.454466 19.5793 0.808073 17.7498 1.53066 15.9817C2.25325 14.2137 3.32944 12.5994 4.75924 11.1388C6.18904 9.70904 7.79565 8.64054 9.57906 7.93332C11.3625 7.22611 13.1997 6.86482 15.0907 6.84944C16.9817 6.83407 18.8113 7.18768 20.5793 7.91026C22.3473 8.63285 23.9616 9.70905 25.4222 11.1388C26.852 12.5686 27.9359 14.2214 28.6738 16.097C29.4118 17.9727 29.75 19.9252 29.6885 21.9546C30.365 21.5549 31.0799 21.3012 31.8332 21.1936C32.5866 21.086 33.3629 21.109 34.1624 21.2628C34.4699 20.1866 35.0003 19.2718 35.7536 18.5185C36.5223 17.7498 37.4141 17.2117 38.4287 16.9042C39.4434 16.5967 40.4812 16.5736 41.542 16.835C41.8495 15.7588 42.3799 14.844 43.1333 14.0907ZM7.71109 28.8499C8.86416 30.003 10.2248 30.8409 11.7929 31.3636C13.3611 31.8863 14.9523 32.0324 16.5666 31.8018L10.6629 25.8981C10.048 25.2831 9.58674 24.5913 9.27926 23.8226C8.97178 23.0539 8.81803 22.2698 8.81803 21.4703C8.81803 20.6709 8.97177 19.8868 9.27926 19.1181C9.58674 18.3493 10.048 17.6575 10.6629 17.0425C11.2779 16.4276 11.9697 15.9663 12.7385 15.6589C13.5072 15.3514 14.2913 15.1976 15.0907 15.1976C15.8902 15.1976 16.6743 15.3514 17.443 15.6589C18.2117 15.9663 18.9035 16.4276 19.5185 17.0425L25.4222 22.9462C25.6528 21.3319 25.5067 19.7407 24.984 18.1725C24.4613 16.6044 23.6234 15.2438 22.4703 14.0907C21.4556 13.076 20.3102 12.315 19.0342 11.8076C17.7581 11.3003 16.4513 11.0543 15.1138 11.0697C13.7762 11.085 12.4617 11.3387 11.1703 11.8307C9.87885 12.3227 8.72579 13.076 7.71109 14.0907C6.69639 15.1054 5.93537 16.2508 5.42802 17.5268C4.92067 18.8029 4.667 20.1174 4.667 21.4703C4.667 22.8232 4.92067 24.1377 5.42802 25.4138C5.93537 26.6899 6.69639 27.8352 7.71109 28.8499ZM49.0369 17.0425C48.6372 16.6428 48.1452 16.4429 47.561 16.4429C46.9768 16.4429 46.4848 16.6428 46.0851 17.0425C45.5624 17.5653 45.3471 18.0726 45.4394 18.5646C45.5316 19.0566 45.7699 19.5408 46.1543 20.0174C46.5386 20.494 47.0076 20.9783 47.561 21.4703C48.1145 21.9623 48.5834 22.4312 48.9678 22.8771C49.3521 23.3229 49.5981 23.8149 49.7057 24.353C49.8134 24.8911 49.5904 25.4061 49.0369 25.8981C48.4681 26.4669 47.9069 26.6745 47.3535 26.5207C46.8 26.367 46.2158 26.0288 45.6008 25.506C44.9859 24.9833 44.4093 24.376 43.8712 23.6842C43.3331 22.9924 42.7566 22.3851 42.1416 21.8624C41.5266 21.3396 40.9578 21.0014 40.4351 20.8477C39.9124 20.6939 39.3358 20.9015 38.7055 21.4703C38.1828 21.993 37.9675 22.5004 38.0598 22.9924C38.152 23.4843 38.3903 23.9686 38.7747 24.4452C39.159 24.9218 39.6279 25.4061 40.1814 25.8981C40.7349 26.3901 41.2038 26.859 41.5881 27.3048C41.9725 27.7507 42.2185 28.2426 42.3261 28.7807C42.4337 29.3188 42.2108 29.8339 41.6573 30.3259C41.0885 30.8947 40.5273 31.1023 39.9739 30.9485C39.4204 30.7948 38.8362 30.4565 38.2212 29.9338C37.6062 29.4111 37.0297 28.8038 36.4916 28.112C35.9535 27.4201 35.377 26.8128 34.762 26.2901C34.147 25.7674 33.5782 25.4292 33.0555 25.2754C32.5327 25.1217 31.9562 25.3292 31.3259 25.8981C30.8031 26.4208 30.5879 26.9282 30.6802 27.4201C30.7724 27.9121 31.0107 28.3964 31.3951 28.873C31.7794 29.3496 32.2483 29.8339 32.8018 30.3259C33.3553 30.8178 33.8242 31.2867 34.2085 31.7326C34.5929 32.1784 34.8389 32.6704 34.9465 33.2085C35.0541 33.7466 34.8312 34.2616 34.2777 34.7536C33.878 35.1534 33.386 35.3532 32.8018 35.3532C32.2176 35.3532 31.7256 35.1534 31.3259 34.7536L16.5666 19.9944C16.1669 19.5947 15.6749 19.3948 15.0907 19.3948C14.5065 19.3948 14.0145 19.5947 13.6148 19.9944C13.2151 20.3941 13.0152 20.8861 13.0152 21.4703C13.0152 22.0545 13.2151 22.5465 13.6148 22.9462L31.764 41.0955C32.1176 41.4491 32.379 41.8334 32.5481 42.2485C32.7172 42.6637 32.8095 43.1095 32.8249 43.5861C32.8402 44.0627 32.748 44.5086 32.5481 44.9237C32.3482 45.3388 32.0946 45.7308 31.7871 46.0998C31.4489 46.438 31.0645 46.6994 30.634 46.8839C30.2036 47.0684 29.7346 47.1683 29.2273 47.1837H22.8162C22.1705 47.1837 21.6247 47.4066 21.1789 47.8524C20.733 48.2983 20.5101 48.8441 20.5101 49.4898C20.5101 50.1355 20.733 50.6967 21.1789 51.1733C21.6247 51.6191 22.1705 51.842 22.8162 51.842L44.6092 51.8651C47.192 51.8651 49.5904 51.4346 51.8043 50.5737C54.0182 49.7127 56.0476 48.3752 57.8925 46.561C59.3223 45.1312 60.3908 43.5246 61.098 41.7412C61.8052 39.9578 62.1588 38.1283 62.1588 36.2526C62.1588 34.377 61.8052 32.5474 61.098 30.764C60.3908 28.9806 59.3223 27.3586 57.8925 25.8981L49.0369 17.0425Z" fill="#1864AB"/>
  <path fill-rule="evenodd" clip-rule="evenodd" d="M115.137 0.494171L128.859 13.9236L115.137 27.353L112.339 24.4942L121.097 15.9236H26V11.9236H121.097L112.339 3.35299L115.137 0.494171Z" fill="#1864AB"/>
  <path d="M15.0907 126.261C14.4758 126.876 14.0145 127.568 13.7071 128.336C13.3996 129.105 13.2458 129.889 13.2458 130.689C13.2458 131.488 13.3996 132.272 13.7071 133.041C14.0145 133.81 14.4758 134.501 15.0907 135.116L23.9463 143.972C25.7758 145.801 27.8436 147.177 30.1498 148.1C32.4559 149.022 34.8158 149.476 37.2296 149.461C39.6433 149.445 41.9956 148.984 44.2863 148.077C46.5771 147.17 48.6526 145.801 50.5129 143.972C52.7268 141.758 54.3641 139.275 55.4249 136.523C56.4858 133.771 57.0239 130.835 57.0392 127.714V105.944C57.0392 105.083 56.8701 104.253 56.5319 103.453C56.1937 102.654 55.7248 101.954 55.1252 101.355C54.4794 100.709 53.7568 100.232 52.9574 99.9249C52.1579 99.6174 51.3354 99.4559 50.4898 99.4406C49.6442 99.4252 48.8371 99.5866 48.0684 99.9249C47.2997 100.263 46.5771 100.74 45.9006 101.355C44.6399 102.615 44.0096 104.153 44.0096 105.967L43.9865 110.879L36.2379 103.13C36.7145 101.793 36.9913 100.44 37.0682 99.0716C37.145 97.7033 37.0297 96.358 36.7222 95.0359C36.4147 93.7137 35.9381 92.4376 35.2924 91.2077C34.6467 89.9777 33.8165 88.8708 32.8018 87.8869C31.372 86.4571 29.7654 85.3885 27.982 84.6813C26.1986 83.9741 24.3614 83.6128 22.4703 83.5975C20.5793 83.5821 18.7498 83.9357 16.9818 84.6583C15.2137 85.3809 13.5994 86.4571 12.1389 87.8869C10.7091 89.3167 9.64057 90.9233 8.93336 92.7067C8.22615 94.4901 7.86485 96.3273 7.84948 98.2183C7.83411 100.109 8.18771 101.939 8.9103 103.707C9.63289 105.475 10.7091 107.089 12.1389 108.55C13.5687 109.98 15.2214 111.063 17.0971 111.801C18.9727 112.539 20.9252 112.878 22.9546 112.816C22.5549 113.493 22.3012 114.207 22.1936 114.961C22.086 115.714 22.1091 116.491 22.2628 117.29C21.1866 117.597 20.2718 118.128 19.5185 118.881C18.7498 119.65 18.2117 120.542 17.9042 121.556C17.5967 122.571 17.5737 123.609 17.835 124.67C16.7588 124.977 15.8441 125.508 15.0907 126.261ZM29.85 90.8387C31.003 91.9918 31.8409 93.3524 32.3636 94.9206C32.8864 96.4887 33.0324 98.08 32.8018 99.6942L26.8981 93.7905C26.2831 93.1756 25.5913 92.7144 24.8226 92.4069C24.0539 92.0994 23.2698 91.9456 22.4703 91.9456C21.6709 91.9456 20.8868 92.0994 20.1181 92.4069C19.3494 92.7144 18.6575 93.1756 18.0426 93.7905C17.4276 94.4055 16.9664 95.0974 16.6589 95.8661C16.3514 96.6348 16.1977 97.4189 16.1977 98.2183C16.1977 99.0178 16.3514 99.8019 16.6589 100.571C16.9664 101.339 17.4276 102.031 18.0426 102.646L23.9463 108.55C22.332 108.78 20.7407 108.634 19.1726 108.112C17.6044 107.589 16.2438 106.751 15.0907 105.598C14.076 104.583 13.315 103.438 12.8077 102.162C12.3003 100.886 12.0543 99.5789 12.0697 98.2414C12.0851 96.9038 12.3387 95.5893 12.8307 94.2979C13.3227 93.0065 14.076 91.8534 15.0907 90.8387C16.1054 89.824 17.2508 89.063 18.5269 88.5556C19.8029 88.0483 21.1174 87.7946 22.4703 87.7946C23.8233 87.7946 25.1378 88.0483 26.4138 88.5556C27.6899 89.063 28.8353 89.824 29.85 90.8387ZM18.0426 132.165C17.6428 131.765 17.443 131.273 17.443 130.689C17.443 130.104 17.6428 129.612 18.0426 129.213C18.5653 128.69 19.0726 128.475 19.5646 128.567C20.0566 128.659 20.5409 128.898 21.0175 129.282C21.4941 129.666 21.9784 130.135 22.4703 130.689C22.9623 131.242 23.4312 131.711 23.8771 132.095C24.3229 132.48 24.8149 132.726 25.353 132.833C25.8911 132.941 26.4061 132.718 26.8981 132.165C27.467 131.596 27.6745 131.035 27.5208 130.481C27.367 129.928 27.0288 129.343 26.5061 128.728C25.9834 128.113 25.3761 127.537 24.6842 126.999C23.9924 126.461 23.3851 125.884 22.8624 125.269C22.3397 124.654 22.0014 124.085 21.8477 123.563C21.6939 123.04 21.9015 122.463 22.4703 121.833C22.9931 121.31 23.5004 121.095 23.9924 121.187C24.4844 121.28 24.9687 121.518 25.4453 121.902C25.9219 122.287 26.4061 122.756 26.8981 123.309C27.3901 123.862 27.859 124.331 28.3049 124.716C28.7507 125.1 29.2427 125.346 29.7808 125.454C30.3189 125.561 30.8339 125.338 31.3259 124.785C31.8947 124.216 32.1023 123.655 31.9485 123.101C31.7948 122.548 31.4566 121.964 30.9338 121.349C30.4111 120.734 29.8038 120.157 29.112 119.619C28.4202 119.081 27.8129 118.505 27.2902 117.89C26.7674 117.275 26.4292 116.706 26.2755 116.183C26.1217 115.66 26.3293 115.084 26.8981 114.453C27.4208 113.931 27.9282 113.716 28.4202 113.808C28.9121 113.9 29.3964 114.138 29.873 114.523C30.3496 114.907 30.8339 115.376 31.3259 115.929C31.8179 116.483 32.2868 116.952 32.7326 117.336C33.1785 117.72 33.6705 117.966 34.2085 118.074C34.7466 118.182 35.2617 117.959 35.7537 117.405C36.1534 117.006 36.3533 116.514 36.3533 115.929C36.3533 115.345 36.1534 114.853 35.7537 114.453L20.9944 99.6942C20.5947 99.2945 20.3948 98.8025 20.3948 98.2183C20.3948 97.6341 20.5947 97.1421 20.9944 96.7424C21.3942 96.3427 21.8861 96.1428 22.4703 96.1428C23.0546 96.1428 23.5465 96.3427 23.9463 96.7424L42.0955 114.892C42.4491 115.245 42.8335 115.507 43.2486 115.676C43.6637 115.845 44.1095 115.937 44.5861 115.952C45.0627 115.968 45.5086 115.876 45.9237 115.676C46.3388 115.476 46.7308 115.222 47.0998 114.915C47.4381 114.576 47.6994 114.192 47.8839 113.762C48.0684 113.331 48.1683 112.862 48.1837 112.355L48.1837 105.944C48.1837 105.298 48.4066 104.752 48.8525 104.307C49.2983 103.861 49.8441 103.638 50.4898 103.638C51.1356 103.638 51.6967 103.861 52.1733 104.307C52.6192 104.752 52.8421 105.298 52.8421 105.944L52.8651 127.737C52.8651 130.32 52.4347 132.718 51.5737 134.932C50.7128 137.146 49.3752 139.175 47.5611 141.02C46.1312 142.45 44.5246 143.518 42.7412 144.226C40.9578 144.933 39.1283 145.286 37.2526 145.286C35.377 145.286 33.5475 144.933 31.7641 144.226C29.9806 143.518 28.3587 142.45 26.8981 141.02L18.0426 132.165Z" fill="#1864AB"/>
  <path fill-rule="evenodd" clip-rule="evenodd" d="M115.137 80.6982L128.86 94.1276L115.137 107.557L112.339 104.698L121.097 96.1276H22.5V92.1276H121.097L112.339 83.557L115.137 80.6982Z" fill="#1864AB"/>
</svg>