<svg xmlns="http://www.w3.org/2000/svg" width="163" height="150" viewBox="0 0 163 150" fill="none">
  <path d="M139.633 14.0907C140.248 13.4757 140.94 13.0145 141.709 12.707C142.477 12.3995 143.262 12.2458 144.061 12.2458C144.86 12.2458 145.645 12.3995 146.413 12.707C147.182 13.0145 147.874 13.4757 148.489 14.0907L157.344 22.9462C159.174 24.7757 160.55 26.8436 161.472 29.1497C162.395 31.4558 162.848 33.8158 162.833 36.2295C162.818 38.6433 162.356 40.9955 161.449 43.2863C160.542 45.577 159.174 47.6526 157.344 49.5128C155.13 51.7267 152.647 53.3641 149.896 54.4249C147.144 55.4857 144.207 56.0238 141.086 56.0392H119.316C118.455 56.0392 117.625 55.8701 116.826 55.5318C116.026 55.1936 115.327 54.7247 114.727 54.1251C114.081 53.4794 113.605 52.7568 113.297 51.9573C112.99 51.1579 112.828 50.3354 112.813 49.4898C112.798 48.6442 112.959 47.837 113.297 47.0683C113.635 46.2996 114.112 45.577 114.727 44.9006C115.988 43.6399 117.525 43.0095 119.339 43.0095L124.251 42.9865L116.503 35.2379C115.165 35.7145 113.812 35.9912 112.444 36.0681C111.076 36.145 109.73 36.0297 108.408 35.7222C107.086 35.4147 105.81 34.9381 104.58 34.2924C103.35 33.6467 102.243 32.8164 101.259 31.8018C99.8294 30.372 98.7609 28.7653 98.0537 26.9819C97.3465 25.1985 96.9852 23.3613 96.9698 21.4703C96.9544 19.5793 97.3081 17.7497 98.0306 15.9817C98.7532 14.2137 99.8294 12.5994 101.259 11.1388C102.689 9.70902 104.296 8.64051 106.079 7.9333C107.862 7.22609 109.7 6.86479 111.591 6.84942C113.482 6.83405 115.311 7.18765 117.079 7.91024C118.847 8.63283 120.462 9.70902 121.922 11.1388C123.352 12.5686 124.436 14.2214 125.174 16.097C125.912 17.9727 126.25 19.9252 126.188 21.9546C126.865 21.5548 127.58 21.3012 128.333 21.1936C129.087 21.0859 129.863 21.109 130.662 21.2627C130.97 20.1865 131.5 19.2718 132.254 18.5184C133.022 17.7497 133.914 17.2116 134.929 16.9041C135.943 16.5967 136.981 16.5736 138.042 16.835C138.349 15.7588 138.88 14.844 139.633 14.0907ZM104.211 28.8499C105.364 30.003 106.725 30.8409 108.293 31.3636C109.861 31.8863 111.452 32.0324 113.067 31.8018L107.163 25.8981C106.548 25.2831 106.087 24.5913 105.779 23.8225C105.472 23.0538 105.318 22.2697 105.318 21.4703C105.318 20.6708 105.472 19.8867 105.779 19.118C106.087 18.3493 106.548 17.6575 107.163 17.0425C107.778 16.4275 108.47 15.9663 109.238 15.6588C110.007 15.3514 110.791 15.1976 111.591 15.1976C112.39 15.1976 113.174 15.3514 113.943 15.6588C114.712 15.9663 115.403 16.4275 116.018 17.0425L121.922 22.9462C122.153 21.3319 122.007 19.7407 121.484 18.1725C120.961 16.6044 120.123 15.2437 118.97 14.0907C117.956 13.076 116.81 12.315 115.534 11.8076C114.258 11.3003 112.951 11.0543 111.614 11.0696C110.276 11.085 108.962 11.3387 107.67 11.8307C106.379 12.3226 105.226 13.076 104.211 14.0907C103.196 15.1054 102.435 16.2507 101.928 17.5268C101.421 18.8029 101.167 20.1174 101.167 21.4703C101.167 22.8232 101.421 24.1377 101.928 25.4138C102.435 26.6898 103.196 27.8352 104.211 28.8499ZM145.537 17.0425C145.137 16.6428 144.645 16.4429 144.061 16.4429C143.477 16.4429 142.985 16.6428 142.585 17.0425C142.062 17.5652 141.847 18.0726 141.939 18.5646C142.032 19.0565 142.27 19.5408 142.654 20.0174C143.039 20.494 143.508 20.9783 144.061 21.4703C144.614 21.9623 145.083 22.4312 145.468 22.877C145.852 23.3229 146.098 23.8149 146.206 24.353C146.313 24.891 146.09 25.4061 145.537 25.8981C144.968 26.4669 144.407 26.6745 143.853 26.5207C143.3 26.367 142.716 26.0287 142.101 25.506C141.486 24.9833 140.909 24.376 140.371 23.6842C139.833 22.9923 139.257 22.3851 138.642 21.8623C138.027 21.3396 137.458 21.0014 136.935 20.8476C136.412 20.6939 135.836 20.9014 135.205 21.4703C134.683 21.993 134.467 22.5004 134.56 22.9923C134.652 23.4843 134.89 23.9686 135.275 24.4452C135.659 24.9218 136.128 25.4061 136.681 25.8981C137.235 26.39 137.704 26.8589 138.088 27.3048C138.472 27.7506 138.718 28.2426 138.826 28.7807C138.934 29.3188 138.711 29.8339 138.157 30.3258C137.588 30.8947 137.027 31.1022 136.474 30.9485C135.92 30.7947 135.336 30.4565 134.721 29.9338C134.106 29.4111 133.53 28.8038 132.992 28.1119C132.453 27.4201 131.877 26.8128 131.262 26.2901C130.647 25.7674 130.078 25.4291 129.555 25.2754C129.033 25.1217 128.456 25.3292 127.826 25.8981C127.303 26.4208 127.088 26.9281 127.18 27.4201C127.272 27.9121 127.511 28.3964 127.895 28.873C128.279 29.3496 128.748 29.8339 129.302 30.3258C129.855 30.8178 130.324 31.2867 130.709 31.7326C131.093 32.1784 131.339 32.6704 131.446 33.2085C131.554 33.7466 131.331 34.2616 130.778 34.7536C130.378 35.1533 129.886 35.3532 129.302 35.3532C128.718 35.3532 128.226 35.1533 127.826 34.7536L113.067 19.9944C112.667 19.5946 112.175 19.3948 111.591 19.3948C111.006 19.3948 110.514 19.5946 110.115 19.9944C109.715 20.3941 109.515 20.8861 109.515 21.4703C109.515 22.0545 109.715 22.5465 110.115 22.9462L128.264 41.0955C128.618 41.4491 128.879 41.8334 129.048 42.2485C129.217 42.6636 129.309 43.1095 129.325 43.5861C129.34 44.0627 129.248 44.5085 129.048 44.9236C128.848 45.3387 128.595 45.7308 128.287 46.0998C127.949 46.438 127.564 46.6994 127.134 46.8838C126.704 47.0683 126.235 47.1683 125.727 47.1836H119.316C118.671 47.1836 118.125 47.4066 117.679 47.8524C117.233 48.2983 117.01 48.8441 117.01 49.4898C117.01 50.1355 117.233 50.6966 117.679 51.1732C118.125 51.6191 118.671 51.842 119.316 51.842L141.109 51.8651C143.692 51.8651 146.09 51.4346 148.304 50.5737C150.518 49.7127 152.548 48.3751 154.392 46.561C155.822 45.1312 156.891 43.5246 157.598 41.7412C158.305 39.9578 158.659 38.1282 158.659 36.2526C158.659 34.3769 158.305 32.5474 157.598 30.764C156.891 28.9806 155.822 27.3586 154.392 25.8981L145.537 17.0425Z" fill="#E4DD06"/>
  <path fill-rule="evenodd" clip-rule="evenodd" d="M13.8632 0.494263L0.140503 13.9237L13.8632 27.3531L16.6609 24.4943L7.90315 15.9237H103V11.9237H7.90315L16.6609 3.35308L13.8632 0.494263Z" fill="#E4DD06"/>
  <path d="M111.591 126.261C110.976 126.876 110.514 127.568 110.207 128.336C109.9 129.105 109.746 129.889 109.746 130.689C109.746 131.488 109.9 132.272 110.207 133.041C110.514 133.81 110.976 134.501 111.591 135.116L120.446 143.972C122.276 145.801 124.344 147.177 126.65 148.1C128.956 149.022 131.316 149.476 133.73 149.461C136.143 149.445 138.496 148.984 140.786 148.077C143.077 147.17 145.153 145.801 147.013 143.972C149.227 141.758 150.864 139.275 151.925 136.523C152.986 133.771 153.524 130.835 153.539 127.714V105.944C153.539 105.083 153.37 104.253 153.032 103.453C152.694 102.654 152.225 101.954 151.625 101.355C150.979 100.709 150.257 100.232 149.457 99.9249C148.658 99.6174 147.835 99.4559 146.99 99.4406C146.144 99.4252 145.337 99.5866 144.568 99.9249C143.8 100.263 143.077 100.74 142.401 101.355C141.14 102.615 140.51 104.153 140.51 105.967L140.486 110.879L132.738 103.13C133.214 101.793 133.491 100.44 133.568 99.0716C133.645 97.7033 133.53 96.358 133.222 95.0359C132.915 93.7137 132.438 92.4376 131.792 91.2077C131.147 89.9777 130.316 88.8708 129.302 87.8869C127.872 86.4571 126.265 85.3885 124.482 84.6813C122.699 83.9741 120.861 83.6128 118.97 83.5975C117.079 83.5821 115.25 83.9357 113.482 84.6583C111.714 85.3809 110.099 86.4571 108.639 87.8869C107.209 89.3167 106.141 90.9233 105.433 92.7067C104.726 94.4901 104.365 96.3273 104.349 98.2183C104.334 100.109 104.688 101.939 105.41 103.707C106.133 105.475 107.209 107.089 108.639 108.55C110.069 109.98 111.721 111.063 113.597 111.801C115.473 112.539 117.425 112.878 119.455 112.816C119.055 113.493 118.801 114.207 118.694 114.961C118.586 115.714 118.609 116.491 118.763 117.29C117.687 117.598 116.772 118.128 116.018 118.881C115.25 119.65 114.712 120.542 114.404 121.556C114.097 122.571 114.074 123.609 114.335 124.67C113.259 124.977 112.344 125.508 111.591 126.261ZM126.35 90.8387C127.503 91.9918 128.341 93.3524 128.864 94.9206C129.386 96.4887 129.532 98.08 129.302 99.6942L123.398 93.7905C122.783 93.1756 122.091 92.7144 121.323 92.4069C120.554 92.0994 119.77 91.9456 118.97 91.9456C118.171 91.9456 117.387 92.0994 116.618 92.4069C115.849 92.7144 115.157 93.1756 114.543 93.7905C113.928 94.4055 113.466 95.0974 113.159 95.8661C112.851 96.6348 112.698 97.4189 112.698 98.2183C112.698 99.0178 112.851 99.8019 113.159 100.571C113.466 101.339 113.928 102.031 114.543 102.646L120.446 108.55C118.832 108.78 117.241 108.634 115.673 108.112C114.104 107.589 112.744 106.751 111.591 105.598C110.576 104.583 109.815 103.438 109.308 102.162C108.8 100.886 108.554 99.5789 108.57 98.2414C108.585 96.9038 108.839 95.5893 109.331 94.2979C109.823 93.0065 110.576 91.8534 111.591 90.8387C112.605 89.824 113.751 89.063 115.027 88.5556C116.303 88.0483 117.617 87.7946 118.97 87.7946C120.323 87.7946 121.638 88.0483 122.914 88.5556C124.19 89.063 125.335 89.824 126.35 90.8387ZM114.543 132.165C114.143 131.765 113.943 131.273 113.943 130.689C113.943 130.104 114.143 129.612 114.543 129.213C115.065 128.69 115.573 128.475 116.065 128.567C116.557 128.659 117.041 128.898 117.517 129.282C117.994 129.666 118.478 130.135 118.97 130.689C119.462 131.242 119.931 131.711 120.377 132.095C120.823 132.48 121.315 132.726 121.853 132.833C122.391 132.941 122.906 132.718 123.398 132.165C123.967 131.596 124.174 131.035 124.021 130.481C123.867 129.928 123.529 129.343 123.006 128.728C122.483 128.113 121.876 127.537 121.184 126.999C120.492 126.461 119.885 125.884 119.362 125.269C118.84 124.654 118.501 124.085 118.348 123.563C118.194 123.04 118.401 122.463 118.97 121.833C119.493 121.31 120 121.095 120.492 121.187C120.984 121.28 121.469 121.518 121.945 121.902C122.422 122.287 122.906 122.756 123.398 123.309C123.89 123.862 124.359 124.331 124.805 124.716C125.251 125.1 125.743 125.346 126.281 125.454C126.819 125.561 127.334 125.338 127.826 124.785C128.395 124.216 128.602 123.655 128.448 123.101C128.295 122.548 127.957 121.964 127.434 121.349C126.911 120.734 126.304 120.157 125.612 119.619C124.92 119.081 124.313 118.505 123.79 117.89C123.267 117.275 122.929 116.706 122.775 116.183C122.622 115.66 122.829 115.084 123.398 114.453C123.921 113.931 124.428 113.716 124.92 113.808C125.412 113.9 125.896 114.138 126.373 114.523C126.85 114.907 127.334 115.376 127.826 115.929C128.318 116.483 128.787 116.952 129.233 117.336C129.678 117.72 130.17 117.966 130.708 118.074C131.247 118.182 131.762 117.959 132.254 117.405C132.653 117.006 132.853 116.514 132.853 115.929C132.853 115.345 132.653 114.853 132.254 114.453L117.494 99.6942C117.095 99.2945 116.895 98.8025 116.895 98.2183C116.895 97.6341 117.095 97.1421 117.494 96.7424C117.894 96.3427 118.386 96.1428 118.97 96.1428C119.555 96.1428 120.046 96.3427 120.446 96.7424L138.595 114.892C138.949 115.245 139.333 115.507 139.749 115.676C140.164 115.845 140.609 115.937 141.086 115.952C141.563 115.968 142.009 115.876 142.424 115.676C142.839 115.476 143.231 115.222 143.6 114.915C143.938 114.576 144.199 114.192 144.384 113.762C144.568 113.331 144.668 112.862 144.684 112.355V105.944C144.684 105.298 144.907 104.752 145.352 104.307C145.798 103.861 146.344 103.638 146.99 103.638C147.635 103.638 148.197 103.861 148.673 104.307C149.119 104.752 149.342 105.298 149.342 105.944L149.365 127.737C149.365 130.32 148.935 132.718 148.074 134.932C147.213 137.146 145.875 139.175 144.061 141.02C142.631 142.45 141.025 143.518 139.241 144.226C137.458 144.933 135.628 145.286 133.753 145.286C131.877 145.286 130.047 144.933 128.264 144.226C126.481 143.518 124.859 142.45 123.398 141.02L114.543 132.165Z" fill="#E4DD06"/>
  <path fill-rule="evenodd" clip-rule="evenodd" d="M13.8632 80.6983L0.140503 94.1277L13.8632 107.557L16.6609 104.698L7.90315 96.1277H106.5V92.1277H7.90315L16.6609 83.5571L13.8632 80.6983Z" fill="#E4DD06"/>
</svg>