<svg xmlns="http://www.w3.org/2000/svg" width="16" height="18" viewBox="0 0 16 18" fill="none">
  <path d="M9.86193e-07 12.5V4.00001C9.86193e-07 3.11667 0.229335 2.41234 0.688001 1.88701C1.14667 1.36167 1.75067 0.961674 2.5 0.687007C3.25 0.412341 4.10433 0.229007 5.063 0.137007C6.02167 0.0450073 7.00067 -0.000659472 8 7.19423e-06C9.1 7.19423e-06 10.1377 0.0460072 11.113 0.138007C12.0883 0.230007 12.9383 0.413341 13.663 0.688007C14.3877 0.962674 14.9583 1.36267 15.375 1.88801C15.7917 2.41334 16 3.11734 16 4.00001V12.5C16 13.4833 15.6627 14.3127 14.988 14.988C14.3133 15.6633 13.484 16.0007 12.5 16L14 17.5V18H12L10 16H6L4 18H2V17.5L3.5 16C2.51667 16 1.68733 15.6627 1.012 14.988C0.336668 14.3133 -0.00066568 13.484 9.86193e-07 12.5ZM8 2.00001C6.23333 2.00001 4.94167 2.10434 4.125 2.31301C3.30833 2.52167 2.75 2.75067 2.45 3.00001H13.65C13.4 2.71667 12.8627 2.47901 12.038 2.28701C11.2133 2.09501 9.86733 1.99934 8 2.00001ZM2 7.00001H7V5.00001H2V7.00001ZM12.5 9.00001H2H14H12.5ZM9 7.00001H14V5.00001H9V7.00001ZM4.5 13C4.93333 13 5.29167 12.8583 5.575 12.575C5.85833 12.2917 6 11.9333 6 11.5C6 11.0667 5.85833 10.7083 5.575 10.425C5.29167 10.1417 4.93333 10 4.5 10C4.06667 10 3.70833 10.1417 3.425 10.425C3.14167 10.7083 3 11.0667 3 11.5C3 11.9333 3.14167 12.2917 3.425 12.575C3.70833 12.8583 4.06667 13 4.5 13ZM11.5 13C11.9333 13 12.2917 12.8583 12.575 12.575C12.8583 12.2917 13 11.9333 13 11.5C13 11.0667 12.8583 10.7083 12.575 10.425C12.2917 10.1417 11.9333 10 11.5 10C11.0667 10 10.7083 10.1417 10.425 10.425C10.1417 10.7083 10 11.0667 10 11.5C10 11.9333 10.1417 12.2917 10.425 12.575C10.7083 12.8583 11.0667 13 11.5 13ZM3.5 14H12.5C12.9333 14 13.2917 13.8583 13.575 13.575C13.8583 13.2917 14 12.9333 14 12.5V9.00001H2V12.5C2 12.9333 2.14167 13.2917 2.425 13.575C2.70833 13.8583 3.06667 14 3.5 14ZM8 3.00001H13.65H2.45H8Z" fill="#25262B"/>
</svg>